<?xml version="1.0" standalone="no"?>
<!DOCTYPE svg PUBLIC "-//W3C//DTD SVG 20010904//EN"
 "http://www.w3.org/TR/2001/REC-SVG-20010904/DTD/svg10.dtd">
<svg version="1.0" xmlns="http://www.w3.org/2000/svg"
 width="500.000000pt" height="500.000000pt" viewBox="0 0 500.000000 500.000000"
 preserveAspectRatio="xMidYMid meet">
<metadata>
Created by potrace 1.16, written by Peter Selinger 2001-2019
</metadata>
<g transform="translate(0.000000,500.000000) scale(0.100000,-0.100000)"
fill="#000000" stroke="none">
<path d="M1100 4695 c-289 -55 -575 -224 -759 -448 -114 -140 -208 -306 -256
-452 -14 -44 -29 -87 -32 -95 -3 -8 -5 -19 -4 -24 1 -4 -4 -14 -10 -22 -7 -8
-10 -17 -7 -19 3 -3 -1 -36 -9 -73 -7 -37 -16 -146 -20 -242 -5 -150 -2 -192
15 -296 66 -383 273 -745 658 -1154 226 -239 509 -499 1049 -964 193 -165 422
-363 510 -439 88 -77 174 -148 190 -158 39 -25 121 -25 156 -1 14 9 106 87
204 172 381 331 443 384 530 458 727 616 1140 1030 1368 1369 93 138 198 352
243 492 20 64 39 123 42 131 3 8 7 35 9 60 3 25 8 47 13 50 4 3 6 106 4 230
-3 233 -6 279 -17 297 -4 6 -5 18 -2 25 3 8 0 28 -6 44 -7 16 -11 35 -10 41 1
7 -4 23 -11 35 -7 13 -11 26 -10 30 7 26 -103 254 -176 363 -196 295 -431 473
-737 559 -129 36 -202 46 -351 46 -238 0 -420 -50 -624 -173 -174 -105 -389
-330 -508 -533 -20 -35 -39 -64 -42 -64 -3 1 -20 26 -38 58 -53 92 -157 227
-250 325 -177 184 -369 299 -598 358 -114 29 -395 37 -514 14z m406 -301 c281
-58 513 -236 689 -528 57 -95 74 -132 157 -331 30 -73 37 -82 78 -103 72 -37
153 -19 194 43 9 13 34 72 56 131 48 124 66 162 128 264 160 261 349 419 607
506 117 39 301 45 446 14 218 -46 363 -123 510 -269 125 -125 192 -231 253
-401 49 -136 68 -236 73 -393 6 -161 -3 -245 -43 -396 -102 -382 -417 -786
-1048 -1342 -269 -238 -1091 -939 -1101 -939 -5 0 -127 100 -270 221 -143 122
-298 254 -345 293 -257 216 -726 634 -866 772 -517 511 -724 894 -724 1340 0
323 108 614 307 825 91 96 169 152 298 214 94 45 148 63 270 88 53 12 259 6
331 -9z"/>
</g>
</svg>
